<svg xmlns="http://www.w3.org/2000/svg" viewBox="0 0 256 256">
  <defs>
    <mask id="m">
      <path d="M59,0h138C229.584793,0,256,26.415192,256,59v138c0,32.584793-26.415207,59-59,59H59C26.415199,256,0,229.584793,0,197V59C0,26.415192,26.415199,0,59,0Z" fill="white"/>
      <path fill-rule="evenodd" d="M113.074173,22L192.937073,84.440521L139.143524,129.997437L192.405548,175.852646L113.074173,235L113.074173,153.720016L72.14222,189.801453L62.228363,179.887573L113.074173,130.615189L113.074173,130.214691L62.228363,79.639175L73.51915,68.220749L113.074173,105.891479L113.074173,22ZM129.971497,141.412109L129.971497,204.157684L165.122803,175.320786L129.971497,141.412109ZM129.971497,56.4561L129.971497,117.220978L165.122803,84.674118L129.971497,56.4561Z" fill="black"/>
    </mask>
  </defs>
  <path d="M59,0h138C229.584793,0,256,26.415192,256,59v138c0,32.584793-26.415207,59-59,59H59C26.415199,256,0,229.584793,0,197V59C0,26.415192,26.415199,0,59,0Z" fill="black" mask="url(#m)"/>
</svg>
