<svg xmlns="http://www.w3.org/2000/svg" xmlns:xlink="http://www.w3.org/1999/xlink" id="svg2" width="43.2" height="43.2"><defs id="defs4"><linearGradient id="gradient_blue"><stop id="stop7" offset="0" style="stop-color:#009099;stop-opacity:1"/><stop id="stop9" offset="1" style="stop-color:#00a899;stop-opacity:.9"/></linearGradient><linearGradient xlink:href="#gradient_blue" id="gradient_rect" x1="5" x2="95" y1="50" y2="50" gradientUnits="userSpaceOnUse"/><linearGradient xlink:href="#gradient_blue" id="gradient_dot" x1="37" x2="63" y1="50" y2="50" gradientUnits="userSpaceOnUse"/></defs><g id="g13" transform="matrix(.48 0 0 .48 -2.4 -2.4)"><path id="path15" d="M21.5 5.5c-8.864 0-16 7.136-16 16v57c0 8.864 7.136 16 16 16h57c8.864 0 16-7.136 16-16v-57c0-8.864-7.136-16-16-16zm16.188 11.188 9.03 15.625A18 18 0 0 1 50 32c1.122 0 2.216.116 3.281.313l9.032-15.626 10.374 6-9.03 15.625A18 18 0 0 1 66.936 44H85v12H66.938a18 18 0 0 1-3.282 5.688l9.032 15.624-10.376 6-9.03-15.624A18 18 0 0 1 50 68a18 18 0 0 1-3.281-.312l-9.032 15.624-10.374-6 9.03-15.624A18 18 0 0 1 33.064 56H15V44h18.063a18 18 0 0 1 3.28-5.687l-9.03-15.626z" style="fill:url(#gradient_rect);fill-opacity:1;fill-rule:nonzero;stroke:#16161d;stroke-width:1;stroke-linecap:butt;stroke-linejoin:round;stroke-miterlimit:4;stroke-opacity:1"/><path id="path17" d="M62 50a12 12 0 1 1-24 0 12 12 0 1 1 24 0z" style="fill:url(#gradient_dot);fill-opacity:1;fill-rule:nonzero;stroke:#16161d;stroke-opacity:1"/></g></svg>