<svg xmlns="http://www.w3.org/2000/svg" viewBox="0 0 24.002666 24">
  <g transform="translate(-33.239067,-367.12994)">
    <path fill-rule="nonzero" fill="black" d="m53.531063,377.8206c-4.26933,0-4.488,-0.38133-4.708,-0.75866-0.22,-0.38134-0.43866,-0.76,1.696,-4.456,0.36267,-0.628,0.14667,-1.42934-0.47866,-1.78934-0.62667,-0.36266-1.42667,-0.148-1.78934,0.47867-2.13333,3.69733-2.57333,3.69733-3.01066,3.69733-0.44,0-0.87734,0-3.012,-3.69733-0.36134,-0.62667-1.16267,-0.84133-1.78934,-0.47867-0.62666,0.36-0.84133,1.16134-0.47866,1.78934,2.13333,3.696,1.91333,4.07466,1.696,4.456-0.22134,0.37733-0.44,0.75866-4.70934,0.75866-0.72266,0-1.308,0.58534-1.308,1.30934,0,0.724,0.58534,1.30933,1.308,1.30933,4.26934,0,4.488,0.38133,4.70934,0.75867,0.21733,0.38133,0.43733,0.76133-1.696,4.46-0.36267,0.624-0.148,1.42666,0.47866,1.78533,0.62667,0.364,1.428,0.14667,1.78934,-0.47867,2.13466,-3.696,2.572,-3.696,3.012,-3.696,0.43733,0,0.87733,0,3.01066,3.696,0.36267,0.62534,1.16267,0.84267,1.78934,0.47867,0.62533,-0.35867,0.84133,-1.16133,0.47866,-1.78533-2.13466,-3.69867-1.916,-4.07867-1.696,-4.46,0.22,-0.37734,0.43867,-0.75867,4.708,-0.75867,0.72134,0,1.30934,-0.58533,1.30934,-1.30933,0,-0.724-0.588,-1.30934-1.30934,-1.30934m-9.792,2.80934c-0.46133,-0.46134-0.46133,-2.53867,0,-3,0.46134,-0.46134,2.53867,-0.46134,3,0,0.46134,0.46133,0.46134,2.53866,0,3-0.46133,0.46266-2.53866,0.46266-3,0m1.50134,10.5c-4.00134,0-8.00134,0-10.00134,-1.99867-1.999996,-2-1.999996,-6-1.999996,-10.00133,0,-4,0,-8,1.999996,-10.00134,2,-1.99866,6,-1.99866,10.00134,-1.99866,4,0,7.99866,0,10,1.99866,2.00133,2.00134,2.00133,6.00134,2.00133,10.00134,0,4.00133,0,8.00133-2.00133,10.00133-2.00134,1.99867-6,1.99867-10,1.99867"/>
  </g>
</svg>
